Coordinates
version=1
nRows=8
nColumns=40
inDegrees=yes

Units are S.I. units (second, meters, Newtons, ...)
Angles are in degrees.

endheader
time	pelvis_tilt	pelvis_list	pelvis_rotation	pelvis_tx	pelvis_ty	pelvis_tz	hip_flexion_r	hip_adduction_r	hip_rotation_r	knee_angle_r	knee_angle_r_beta	ankle_angle_r	subtalar_angle_r	mtp_angle_r	hip_flexion_l	hip_adduction_l	hip_rotation_l	knee_angle_l	knee_angle_l_beta	ankle_angle_l	subtalar_angle_l	mtp_angle_l	lumbar_extension	lumbar_bending	lumbar_rotation	arm_flex_r	arm_add_r	arm_rot_r	elbow_flex_r	pro_sup_r	wrist_flex_r	wrist_dev_r	arm_flex_l	arm_add_l	arm_rot_l	elbow_flex_l	pro_sup_l	wrist_flex_l	wrist_dev_l
     50.72500000	     -2.37608431	     -2.14101578	     -3.62946166	      0.97461507	      0.93016121	      0.40639660	     27.83545035	     -4.10319350	    -13.44643551	     18.18018660	     18.18018660	      3.44294582	      3.47000266	      8.91658485	     -1.86892816	     -0.37781232	    -15.09448781	      9.39873795	      9.39873795	     16.00343156	      0.15737222	     -8.13013269	     -9.05678021	      2.72244586	      1.55014788	    -19.24860907	    -13.84805226	    -17.18993041	     20.36728177	     47.85456752	      0.00000000	      0.00000000	     27.10753775	    -15.34451670	     -9.29011386	     74.26685827	     47.53945519	      0.00000000	      0.00000000
     50.73707143	     -2.51446027	     -2.02512555	     -3.64203661	      0.97525902	      0.92888738	      0.40800832	     27.52101142	     -3.87992291	    -13.68092696	     18.21380780	     18.21380780	      3.33145983	      3.38762035	      8.96790978	     -2.24736751	     -0.34569289	    -15.07411016	      9.45202697	      9.45202697	     16.30530784	      0.11248174	     -8.21760019	     -8.64629016	      2.54127909	      1.50819391	    -19.40536070	    -13.83019716	    -17.19477127	     20.32239757	     47.85471304	      0.00000000	      0.00000000	     27.24773194	    -15.39195232	     -9.32741560	     74.40762199	     47.54567948	      0.00000000	      0.00000000
     50.74914286	     -2.67948456	     -1.91209333	     -3.61928011	      0.97598453	      0.92767536	      0.40961767	     27.11869764	     -3.67619722	    -13.83096223	     18.30390602	     18.30390602	      3.26617057	      3.33461055	      8.98478794	     -2.58437889	     -0.32782698	    -14.99329014	      9.52746700	      9.52746700	     16.50476287	      0.11576257	     -8.27616951	     -8.24734772	      2.44106094	      1.50298379	    -19.50526964	    -13.78668220	    -17.19573512	     20.29594748	     47.85433591	      0.00000000	      0.00000000	     27.35470616	    -15.41305519	     -9.35234876	     74.54879946	     47.55072134	      0.00000000	      0.00000000
     50.76121429	     -2.55329489	     -2.09097845	     -3.37745389	      0.97706968	      0.92686584	      0.41133204	     26.12948986	     -3.25384511	    -14.19993529	     18.21809927	     18.21809927	      3.09664552	      3.32722522	      8.21500875	     -3.07268843	     -0.74390775	    -15.02109474	     10.05849255	     10.05849255	     17.45259433	      0.63498488	     -7.59672896	     -8.41899485	      2.49843398	      2.01582691	    -20.20384633	    -13.34987507	    -17.17659366	     20.39068428	     47.82551287	      0.00000000	      0.00000000	     27.19336468	    -14.77704855	     -9.41514455	     77.46392379	     47.61119122	      0.00000000	      0.00000000
     50.77328571	     -2.64402743	     -2.10643967	     -3.13864463	      0.97813007	      0.92576214	      0.41314550	     25.48892086	     -2.94860848	    -14.00754515	     18.32106518	     18.32106518	      2.48618131	      2.65066989	      5.49197282	     -3.16290410	     -1.11289147	    -15.49130008	     10.96951046	     10.96951046	     19.04713334	      2.06795334	     -5.31800800	     -8.17531104	      2.44679679	      1.12741146	    -19.77959847	    -13.36486411	    -17.03386276	     21.18240719	     47.73960257	      0.00000000	      0.00000000	     25.90464765	    -15.42312497	    -10.05278771	     79.84573265	     47.71228854	      0.00000000	      0.00000000
     50.78535714	     -2.73526113	     -2.15071424	     -2.90172995	      0.97925907	      0.92486281	      0.41489869	     24.92087703	     -2.71354035	    -13.92951834	     18.65185003	     18.65185003	      2.81368509	      2.49132387	      5.21629926	     -3.51274624	     -1.33715116	    -15.24415696	     11.20395620	     11.20395620	     19.27453349	      2.06084783	     -5.30655478	     -7.86338437	      2.47553662	      1.15503163	    -19.57352913	    -13.13648546	    -16.97659675	     21.21680982	     47.73158030	      0.00000000	      0.00000000	     25.76767468	    -15.17182563	     -9.98508856	     79.88914978	     47.70890324	      0.00000000	      0.00000000
     50.79742857	     -2.84693245	     -2.24706398	     -2.62426009	      0.98031636	      0.92399461	      0.41681762	     24.31651504	     -2.31203415	    -13.35334184	     18.70776388	     18.70776388	      2.17808934	      1.24042759	      2.14102736	     -3.45077873	     -1.81058464	    -15.35683960	     12.32396724	     12.32396724	     20.67514929	      2.70667955	     -3.08434474	     -7.61485150	      2.53002917	      0.92740825	    -18.91930769	    -13.04810444	    -16.40527210	     20.93994613	     47.65255684	      0.00000000	      0.00000000	     25.11184564	    -15.12754744	    -10.23370797	     80.88868234	     47.77072593	      0.00000000	      0.00000000
     50.80950000	     -2.90681423	     -2.33471377	     -2.34512739	      0.98144739	      0.92355282	      0.41864012	     23.77410018	     -2.09002244	    -13.19232069	     19.03179212	     19.03179212	      2.69724412	      1.03069033	      1.84725542	     -3.71677753	     -2.12813655	    -15.05901498	     12.74809988	     12.74809988	     20.77916330	      2.57695237	     -3.10159318	     -7.40198449	      2.61116366	      1.02297621	    -18.40289488	    -12.76581162	    -16.34048465	     21.11030915	     47.64090333	      0.00000000	      0.00000000	     24.73467513	    -14.76907497	    -10.09157294	     80.81532217	     47.75879566	      0.00000000	      0.00000000
